<?xml version="1.0" encoding="UTF-8"?>
<svg id="Layer_1" xmlns="http://www.w3.org/2000/svg" version="1.1" viewBox="0 0 796.21 786.42">
  <!-- Generator: Adobe Illustrator 30.0.0, SVG Export Plug-In . SVG Version: 2.1.1 Build 123)  -->
  <defs>
    <style>
      .st0 {
        fill: #9d8300;
      }

      .st1 {
        fill: #1b6435;
      }
    </style>
  </defs>
  <circle class="st0" cx="639.44" cy="156.77" r="156.77"/>
  <path class="st0" d="M796.2,611.19c0,23.99-4.5,46.31-13.77,68.21-8.95,21.15-21.23,39.38-37.55,55.69-16.32,16.32-34.53,28.6-55.69,37.55-21.91,9.26-44.21,13.77-68.21,13.77s-46.29-4.5-68.19-13.77c-21.17-8.95-39.38-21.23-55.7-37.55s-28.6-34.53-37.55-55.69c-4.18-9.89-7.43-20.04-9.68-30.18-23.54-106.12-84.3-197.65-168.07-260.41-39.57-29.65-96.09-.28-94.13,49.13,3.25,82.09,36.41,165.65,44.61,178.12.74,1.14,5.44,7.98,9.74,18.12,5.8,13.71,8.61,27.67,8.61,42.65s-2.81,28.96-8.61,42.67c-5.6,13.23-13.28,24.62-23.49,34.82-10.2,10.21-21.6,17.9-34.83,23.49-13.69,5.8-27.65,8.61-42.65,8.61s-28.94-2.81-42.65-8.61c-13.23-5.59-24.62-13.28-34.83-23.47-10.2-10.21-17.88-21.6-23.47-34.83-5.8-13.71-8.62-27.65-8.62-42.67s2.82-28.94,8.62-42.65c2.71-6.41,5.99-12.52,9.72-18.12,72.74-109.01,65.54-252.8-17.74-353.97-.04-.06-.09-.1-.13-.16-.54-.65-1.07-1.31-1.61-1.98-.52-.67-1.04-1.32-1.55-1.99-.52-.67-1.03-1.34-1.52-2.02-1-1.35-1.96-2.71-2.91-4.1-.37-.55-.74-1.1-1.11-1.66-.18-.27-.37-.55-.55-.83-.36-.55-.73-1.11-1.09-1.69-.89-1.41-1.75-2.84-2.59-4.28-.25-.45-.52-.89-.76-1.34-.43-.76-.85-1.5-1.26-2.27-.42-.76-.82-1.53-1.22-2.3-.51-1-1.01-2.01-1.5-3.02-.33-.65-.65-1.32-.95-2.01-.33-.68-.64-1.37-.95-2.05-.45-.98-.88-1.96-1.29-2.96C3.63,209.81,0,191.85,0,172.54s3.63-37.27,11.08-54.9c7.21-17.02,17.1-31.69,30.24-44.82,13.13-13.14,27.8-23.03,44.82-30.24,17.63-7.45,35.59-11.08,54.9-11.08s37.27,3.63,54.9,11.08c17.04,7.21,31.69,17.1,44.84,30.24s23.01,27.8,30.22,44.82c1.07,2.54,2.07,5.08,2.97,7.64.28.74.54,1.49.79,2.24.04.12.09.25.12.37.27.77.52,1.55.77,2.32,52.55,165.31,196.19,285.16,368.25,307.25,15.59,2.01,30.42,6.04,45.3,12.32,21.15,8.95,39.38,21.24,55.69,37.55s28.6,34.53,37.55,55.69c9.26,21.91,13.77,44.23,13.77,68.21v-.04Z"/>
  <circle class="st1" cx="140.99" cy="165.12" r="72.19"/>
  <circle class="st1" cx="140.99" cy="683.57" r="56"/>
  <circle class="st1" cx="639.44" cy="156.77" r="91.69"/>
  <circle class="st1" cx="624.26" cy="621.34" r="116.34"/>
</svg>