<?xml version="1.0" encoding="UTF-8"?>
<svg id="Layer_1" xmlns="http://www.w3.org/2000/svg" version="1.1" viewBox="0 0 1141.63 392.72">
  <!-- Generator: Adobe Illustrator 30.0.0, SVG Export Plug-In . SVG Version: 2.1.1 Build 123)  -->
  <defs>
    <style>
      .st0 {
        fill: #9d8300;
      }

      .st1 {
        fill: #1b6435;
      }
    </style>
  </defs>
  <g>
    <circle class="st0" cx="300.08" cy="83.38" r="73.57"/>
    <path class="st0" d="M373.65,296.63c0,11.26-2.11,21.73-6.46,32.01-4.21,9.93-9.96,18.48-17.63,26.13-7.66,7.66-16.2,13.42-26.13,17.63-10.28,4.34-20.75,6.46-32.01,6.46s-21.73-2.11-32-6.46c-9.94-4.21-18.48-9.96-26.14-17.63-7.66-7.66-13.42-16.2-17.63-26.13-1.96-4.64-3.49-9.4-4.54-14.17-11.04-49.8-39.56-92.76-78.87-122.21-18.57-13.91-45.09-.13-44.18,23.05,1.53,38.53,17.09,77.74,20.94,83.59.34.54,2.55,3.75,4.57,8.5,2.72,6.43,4.04,12.98,4.04,20.02s-1.32,13.59-4.04,20.03c-2.63,6.2-6.23,11.55-11.02,16.34s-10.13,8.4-16.35,11.02c-6.42,2.72-12.97,4.04-20.02,4.04s-13.58-1.32-20.02-4.04c-6.2-2.62-11.55-6.23-16.35-11.02-4.79-4.79-8.39-10.13-11.02-16.35-2.72-6.43-4.04-12.97-4.04-20.03s1.32-13.58,4.04-20.02c1.28-3.01,2.82-5.87,4.56-8.5,34.14-51.15,30.76-118.64-8.32-166.11-.02-.02-.05-.05-.06-.08-.25-.31-.51-.61-.76-.93-.24-.31-.49-.62-.72-.93-.24-.31-.48-.63-.71-.95-.47-.63-.92-1.28-1.37-1.93-.17-.25-.34-.52-.53-.78-.08-.13-.17-.25-.25-.39-.17-.25-.34-.53-.51-.79-.41-.67-.83-1.33-1.22-2.01-.11-.21-.24-.41-.36-.63-.21-.36-.4-.7-.6-1.07-.2-.36-.38-.72-.57-1.08-.24-.47-.47-.94-.7-1.41-.15-.31-.31-.62-.45-.94-.15-.32-.3-.64-.45-.97-.21-.46-.41-.92-.61-1.39C1.7,108.21,0,99.78,0,90.72s1.7-17.49,5.19-25.76c3.38-7.99,8.02-14.87,14.19-21.04,6.16-6.17,13.04-10.8,21.04-14.19,8.27-3.49,16.71-5.19,25.76-5.19s17.49,1.7,25.76,5.19c8,3.38,14.87,8.02,21.04,14.19s10.8,13.04,14.18,21.04c.51,1.19.97,2.39,1.39,3.58.14.34.25.7.37,1.06.02.06.05.11.06.17.13.37.24.72.37,1.09,24.66,77.58,92.07,133.81,172.81,144.19,7.32.94,14.27,2.84,21.26,5.78,9.93,4.21,18.48,9.97,26.13,17.63s13.42,16.2,17.63,26.13c4.34,10.28,6.46,20.75,6.46,32.01l.02.02Z"/>
    <circle class="st1" cx="66.16" cy="87.3" r="33.87"/>
    <circle class="st1" cx="66.16" cy="330.59" r="26.28"/>
    <circle class="st1" cx="300.08" cy="83.38" r="43.03"/>
    <circle class="st1" cx="292.95" cy="301.39" r="54.59"/>
  </g>
  <g>
    <path class="st1" d="M596.12,275.6c0,52.37-33.77,86.49-86.14,86.49-28.6,0-52.72-11.38-65.82-31.36-10-15.16-14.12-31.7-14.12-57.54V126.4h68.23v146.79c0,14.47,4.48,21.02,14.47,21.02s15.16-6.55,15.16-21.02V126.4h68.23v149.2h0Z"/>
    <path class="st1" d="M722.24,223.23c14.12-.34,21.02-6.55,21.02-18.26,0-5.86-3.1-11.38-8.27-14.12-3.45-1.72-8.27-2.41-16.88-2.41h-12.06v167.8h-68.23V126.41h87.52c26.19,0,47.89,6.89,62.37,19.98,15.17,13.78,24.46,35.49,24.46,56.51,0,23.77-9.65,42.72-30.32,58.92l39.28,94.41h-71.66l-27.22-60.65v-72.35h0Z"/>
  </g>
  <g>
    <circle class="st0" cx="925.59" cy="258.98" r="98.03" transform="translate(87.97 730.35) rotate(-45)"/>
    <circle class="st1" cx="925.59" cy="258.98" r="48.76"/>
  </g>
  <path class="st1" d="M1112.69,127.19v136.45c0,13.43,1.72,18.95,6.89,22.74,4.48,3.45,7.93,4.14,22.05,4.14v66.51h-18.26c-23.43,0-42.04-6.89-56.16-20.33-15.85-15.5-22.74-33.77-22.74-62.02V127.19h68.23-.01Z"/>
</svg>